<svg xmlns="http://www.w3.org/2000/svg" xmlns:xlink="http://www.w3.org/1999/xlink" version="1.1" x="0px" y="0px" viewBox="0 0 90 112.5" enable-background="new 0 0 90 90" fill='#f6f6f6' xml:space="preserve"><g>
<circle fill="#f6f6f6" cx="45.009" cy="60.121" r="2.855"/><path fill="#f6f6f6" d="M68.568,40.647c-15.839-7.527-22.759-8.252-23.498-8.311v-0.005c0,0-0.014,0.001-0.035,0.002   c-0.021-0.001-0.035-0.002-0.035-0.002v0.005c-0.739,0.058-7.657,0.784-23.497,8.311c-11.362,5.4-19.602,11.098-19.602,11.098   h3.825c0,0,8.702-1.286,18.517-1.747c3.496-0.164,10.333-0.253,17.577-0.271l-9.814,16.999h-0.48v0.527h5.712   c0.151,0.236,0.35,0.446,0.604,0.604l0.126,0.078c0.909,0.563,2.101,0.283,2.664-0.625l0.036-0.058h8.628l0.035,0.058   c0.564,0.908,1.756,1.188,2.664,0.625l0.127-0.078c0.254-0.158,0.453-0.368,0.604-0.604h5.757v-0.527h-0.48l-9.813-16.998   c7.397,0.022,14.323,0.115,17.633,0.271c9.815,0.461,18.519,1.747,18.519,1.747h3.824C88.169,51.745,79.93,46.047,68.568,40.647z    M40.998,66.726l0.801-1.293c0.15,0.024,0.302,0.047,0.458,0.047h5.506c0.142,0,0.276-0.022,0.411-0.043l0.798,1.289H40.998z    M57.398,66.726h-4.434c0.139-0.501,0.081-1.055-0.215-1.532l-2.307-3.722c-0.354-0.86-1.113-1.505-2.037-1.717   c0.013,0.122,0.036,0.24,0.036,0.366c0,1.896-1.537,3.432-3.433,3.432c-1.896,0-3.432-1.536-3.432-3.432   c0-0.124,0.023-0.241,0.036-0.362c-0.41,0.097-0.788,0.273-1.112,0.522c-0.241,0.152-0.456,0.354-0.616,0.611l-2.666,4.301   c-0.296,0.478-0.354,1.031-0.215,1.532h-4.388l9.815-17c0.854-0.002,1.711-0.003,2.569-0.003c0.864,0,1.726,0.002,2.584,0.004   L57.398,66.726z"/></g></svg>